<svg height="60" viewBox="0 0 60 60" width="60" xmlns="http://www.w3.org/2000/svg"><circle cx="30" cy="30" fill="#fff" r="30"/><g fill="#333"><path d="m20.579 7.052c4.406 0 4.928.017 6.667.1a9.133 9.133 0 0 1 3.064.568 5.464 5.464 0 0 1 3.131 3.131 9.132 9.132 0 0 1 .568 3.064c.079 1.74.1 2.262.1 6.667s-.017 4.928-.1 6.667a9.133 9.133 0 0 1 -.568 3.064 5.464 5.464 0 0 1 -3.131 3.131 9.133 9.133 0 0 1 -3.064.568c-1.74.079-2.261.1-6.667.1s-4.928-.017-6.667-.1a9.132 9.132 0 0 1 -3.064-.568 5.464 5.464 0 0 1 -3.132-3.134 9.133 9.133 0 0 1 -.568-3.064c-.079-1.74-.1-2.262-.1-6.667s.017-4.928.1-6.667a9.132 9.132 0 0 1 .568-3.064 5.464 5.464 0 0 1 3.131-3.131 9.132 9.132 0 0 1 3.064-.568c1.74-.079 2.262-.1 6.667-.1m0-2.973c-4.481 0-5.043.019-6.8.1a12.111 12.111 0 0 0 -4.005.767 8.437 8.437 0 0 0 -4.828 4.828 12.111 12.111 0 0 0 -.767 4.005c-.08 1.76-.1 2.322-.1 6.8s.019 5.043.1 6.8a12.111 12.111 0 0 0 .767 4.005 8.437 8.437 0 0 0 4.826 4.826 12.111 12.111 0 0 0 4.005.767c1.76.08 2.322.1 6.8.1s5.043-.019 6.8-.1a12.111 12.111 0 0 0 4.005-.767 8.437 8.437 0 0 0 4.826-4.826 12.111 12.111 0 0 0 .767-4.005c.08-1.76.1-2.322.1-6.8s-.019-5.043-.1-6.8a12.111 12.111 0 0 0 -.767-4.005 8.437 8.437 0 0 0 -4.826-4.826 12.111 12.111 0 0 0 -4.005-.767c-1.76-.08-2.322-.1-6.8-.1z" transform="translate(9.921 9.921)"/><path d="m134.431 126.635a7.8 7.8 0 1 0 7.8 7.8 7.8 7.8 0 0 0 -7.8-7.8zm0 12.857a5.061 5.061 0 1 1 5.061-5.061 5.061 5.061 0 0 1 -5.061 5.061z" transform="translate(-103.931 -103.931)"/><circle cx="39.207" cy="21.794" r="2.147"/></g></svg>