<svg id="レイヤー_1" data-name="レイヤー 1" xmlns="http://www.w3.org/2000/svg" viewBox="0 0 551.89 99.3"><defs><style>.cls-1{fill:#fff;}</style></defs><path class="cls-1" d="M614.39,416.52V401.21H598.12V384.63H582.24v16.58H570v15.31h12.26V446c0,14.14,4.62,26.15,32.15,22.22V453.71c-9.74,1-16.27.29-16.27-7.28V416.52Z" transform="translate(-319.33 -371.29)"/><path class="cls-1" d="M690.06,441.31a42.65,42.65,0,0,0,.47-6.35c0-20.11-14.69-35.64-34.15-35.64-21.19,0-35.64,15.53-35.64,35.64s14.62,35.64,37,35.64c13.41,0,23.22-5.46,29-14.06l-13.2-7.78c-3.87,5-10,6.83-15.4,6.83-11,0-18.51-5.32-20.78-14.28Zm-33.65-27.12c10,0,16,6.05,18,14.42H637.37C639.42,420.06,645.75,414.19,656.41,414.19Z" transform="translate(-319.33 -371.29)"/><path class="cls-1" d="M826.87,441.31a44,44,0,0,0,.46-6.35c0-20.11-14.68-35.64-34.15-35.64-21.19,0-35.63,15.53-35.63,35.64s14.62,35.64,37,35.64c13.41,0,23.22-5.46,29-14.06l-13.21-7.78c-3.86,5-10.05,6.83-15.4,6.83-11,0-18.5-5.32-20.78-14.28Zm-33.66-27.12c10,0,16,6.05,18,14.42H774.17C776.23,420.06,782.55,414.19,793.21,414.19Z" transform="translate(-319.33 -371.29)"/><polygon class="cls-1" points="422.16 29.92 404.73 78.26 404.44 78.26 387 29.92 369.65 29.92 395.47 97.41 413.69 97.41 439.51 29.92 422.16 29.92"/><path class="cls-1" d="M456.7,399.32c-6.09,0-13.79,3.27-17.83,7.31V371.29H423v97.42h15.87v-37c0-11.74,7.12-17.12,15.62-17.12,7.83,0,14.13,5,14.13,14.29v39.79H484.5v-38C484.5,410.11,473.68,399.32,456.7,399.32Z" transform="translate(-319.33 -371.29)"/><path class="cls-1" d="M850.7,408.17v-7H834.83v67.5H850.7V435.5h0c0-11.93,8-19.41,20.51-18.33V399.86C862.33,399.86,855.64,403,850.7,408.17Z" transform="translate(-319.33 -371.29)"/><path class="cls-1" d="M562.49,401.21H546.62v4a36,36,0,0,0-19.83-5.89,35.64,35.64,0,1,0,0,71.28,36,36,0,0,0,19.83-5.89v4h15.87Zm-35.7,54.08c-11.2,0-19.83-8.4-19.83-20.33s8.63-20.33,19.83-20.33S546.61,423,546.62,435v0C546.61,446.9,538,455.29,526.79,455.29Z" transform="translate(-319.33 -371.29)"/><polygon class="cls-1" points="80 29.92 68.52 70.81 68.29 70.81 56.25 29.92 40.96 29.92 28.92 70.81 28.69 70.81 17.21 29.92 0 29.92 21.13 97.41 35.82 97.41 48.49 56.2 48.73 56.2 61.39 97.41 76.08 97.41 97.21 29.92 80 29.92"/></svg>