<svg height="60" viewBox="0 0 60 60" width="60" xmlns="http://www.w3.org/2000/svg"><circle cx="30" cy="30" fill="#fff" r="30"/><path d="m86.284 132.57c13.54 0 20.944-13.141 20.944-24.535q0-.56-.021-1.115a16.655 16.655 0 0 0 3.672-4.465 13.06 13.06 0 0 1 -4.227 1.357 8.549 8.549 0 0 0 3.237-4.77 13.525 13.525 0 0 1 -4.674 2.093 6.9 6.9 0 0 0 -5.373-2.724c-4.066 0-7.362 3.862-7.362 8.623a10.036 10.036 0 0 0 .19 1.966c-6.118-.36-11.543-3.792-15.173-9.01a9.745 9.745 0 0 0 -1 4.334 9.085 9.085 0 0 0 3.276 7.178 6.514 6.514 0 0 1 -3.334-1.079v.11c0 4.177 2.538 7.663 5.906 8.454a6.374 6.374 0 0 1 -1.94.3 6.308 6.308 0 0 1 -1.384-.155c.937 3.426 3.654 5.919 6.877 5.989a13.468 13.468 0 0 1 -9.143 3.691 12.812 12.812 0 0 1 -1.755-.112 18.7 18.7 0 0 0 11.284 3.873" fill="#333" transform="translate(-62 -84.211)"/></svg>