<svg id="レイヤー_1" data-name="レイヤー 1" xmlns="http://www.w3.org/2000/svg" viewBox="0 0 668 440"><defs><style>.cls-1,.cls-4{fill:none;}.cls-1,.cls-2,.cls-3,.cls-4{stroke:#000;stroke-width:0.75px;}.cls-1,.cls-2,.cls-3{stroke-miterlimit:10;}.cls-3{fill:#fff;}.cls-4{stroke-linecap:round;stroke-linejoin:round;}</style></defs><polygon class="cls-1" points="150.76 107.25 493.49 107.25 505.33 119.09 505.33 343.12 150.76 343.12 150.76 107.25"/><polygon points="493.49 107.25 493.49 343.12 505.33 343.12 505.33 119.09 493.49 107.25"/><rect class="cls-1" x="164.45" y="120.94" width="315.34" height="208.5"/><line class="cls-1" x1="301.29" y1="388.97" x2="301.29" y2="343.12"/><line class="cls-1" x1="342.96" y1="343.12" x2="342.96" y2="388.97"/><rect class="cls-2" x="342.96" y="343.12" width="5.43" height="45.85"/><line class="cls-1" x1="263.85" y1="388.97" x2="385.83" y2="388.97"/><rect class="cls-1" x="285.98" y="201.87" width="72.29" height="46.62"/><polyline class="cls-1" points="285.98 201.87 322.13 233.41 358.27 201.87"/><circle class="cls-3" cx="322.12" cy="233.41" r="5.91"/><circle class="cls-1" cx="322.12" cy="225.18" r="58.24"/><polygon class="cls-3" points="457.73 210.15 578.4 210.15 590.24 221.99 590.24 388.97 457.73 388.97 457.73 210.15"/><polygon points="578.4 210.15 578.4 388.97 590.24 388.97 590.24 221.99 578.4 210.15"/><rect class="cls-1" x="471.42" y="223.83" width="93.3" height="151.45"/><circle class="cls-1" cx="518.06" cy="299.56" r="33.96"/><path class="cls-1" d="M1136.43,610.52a7.2,7.2,0,1,0-10.18-10.18" transform="translate(-625.63 -320.16)"/><path class="cls-1" d="M1153.17,627.26a7.21,7.21,0,0,1,10.19,10.19" transform="translate(-625.63 -320.16)"/><polyline class="cls-1" points="534.42 318.54 520.11 318.54 499.37 297.81 499.37 283.5"/><line class="cls-1" x1="524.52" y1="310.13" x2="507.78" y2="293.39"/><line class="cls-1" x1="590.24" y1="364.38" x2="668.38" y2="364.38"/><polyline class="cls-1" points="75.84 439.31 150.76 364.38 301.29 364.38"/><line class="cls-1" x1="348.39" y1="364.38" x2="457.73" y2="364.38"/><path class="cls-4" d="M695.33,381.26" transform="translate(-625.63 -320.16)"/><path class="cls-4" d="M660.07,382.12" transform="translate(-625.63 -320.16)"/><polyline class="cls-4" points="35.57 61.96 35.57 84.84 123.55 61.96"/><polygon class="cls-2" points="35.57 26.77 35.57 34.07 123.55 61.96 35.57 26.77"/><polygon class="cls-4" points="30.06 32.27 123.55 61.96 0.38 61.96 30.06 32.27"/><polygon class="cls-4" points="35.57 26.77 61.96 0.38 123.55 61.96 35.57 26.77"/><circle class="cls-1" cx="176.63" cy="133.11" r="4.53"/><circle class="cls-1" cx="191.68" cy="133.11" r="4.53"/><circle class="cls-1" cx="206.73" cy="133.11" r="4.53"/></svg>