<svg id="レイヤー_1" data-name="レイヤー 1" xmlns="http://www.w3.org/2000/svg" viewBox="0 0 1130.51 743.11"><defs><style>.cls-1,.cls-4{fill:none;}.cls-1,.cls-2,.cls-3,.cls-4{stroke:#000;stroke-width:0.5px;}.cls-1,.cls-2,.cls-3{stroke-miterlimit:10;}.cls-3{fill:#fff;}.cls-4{stroke-linecap:round;stroke-linejoin:round;}</style></defs><polygon class="cls-1" points="254.71 181.08 834.59 181.08 854.63 201.11 854.63 580.18 254.71 580.18 254.71 181.08"/><polygon points="834.59 181.08 834.59 580.18 854.63 580.18 854.63 201.11 834.59 181.08"/><rect class="cls-1" x="277.87" y="204.24" width="533.56" height="352.77"/><line class="cls-1" x1="509.4" y1="657.76" x2="509.4" y2="580.18"/><line class="cls-1" x1="579.9" y1="580.18" x2="579.9" y2="657.76"/><rect class="cls-2" x="579.9" y="580.18" width="9.19" height="77.58"/><line class="cls-1" x1="446.05" y1="657.76" x2="652.44" y2="657.76"/><rect class="cls-1" x="483.49" y="341.19" width="122.32" height="78.88"/><polyline class="cls-1" points="483.49 341.19 544.65 394.55 605.81 341.19"/><circle class="cls-3" cx="544.65" cy="394.55" r="10"/><circle class="cls-1" cx="544.65" cy="380.63" r="98.55"/><polygon class="cls-3" points="774.09 355.18 978.27 355.18 998.31 375.22 998.31 657.76 774.09 657.76 774.09 355.18"/><polygon points="978.27 355.18 978.27 657.76 998.31 657.76 998.31 375.22 978.27 355.18"/><rect class="cls-1" x="797.25" y="378.34" width="157.86" height="256.25"/><circle class="cls-1" cx="876.18" cy="506.47" r="57.46"/><path class="cls-1" d="M1244.32,659.32a12.18,12.18,0,0,0-17.23-17.23" transform="translate(-380.42 -168.41)"/><path class="cls-1" d="M1272.64,687.65a12.19,12.19,0,1,1,17.24,17.23" transform="translate(-380.42 -168.41)"/><polyline class="cls-1" points="903.85 538.59 879.64 538.59 844.56 503.5 844.56 479.29"/><line class="cls-1" x1="887.1" y1="524.36" x2="858.78" y2="496.04"/><line class="cls-1" x1="998.31" y1="616.15" x2="1130.51" y2="616.15"/><polyline class="cls-1" points="127.93 742.93 254.71 616.15 509.4 616.15"/><line class="cls-1" x1="589.09" y1="616.15" x2="774.09" y2="616.15"/><path class="cls-4" d="M498,271.42" transform="translate(-380.42 -168.41)"/><path class="cls-4" d="M438.32,272.86" transform="translate(-380.42 -168.41)"/><polyline class="cls-4" points="59.8 104.45 59.8 143.16 208.65 104.45"/><polygon class="cls-2" points="59.8 44.91 59.8 57.26 208.65 104.45 59.8 44.91"/><polygon class="cls-4" points="50.48 54.22 208.65 104.45 0.25 104.45 50.48 54.22"/><polygon class="cls-4" points="59.8 44.91 104.45 0.25 208.65 104.45 59.8 44.91"/><circle class="cls-1" cx="298.47" cy="224.84" r="7.66"/><circle class="cls-1" cx="323.94" cy="224.84" r="7.66"/><circle class="cls-1" cx="349.4" cy="224.84" r="7.66"/></svg>