<svg id="レイヤー_1" data-name="レイヤー 1" xmlns="http://www.w3.org/2000/svg" viewBox="0 0 550 556"><defs><style>.cls-1{fill:none;}.cls-1,.cls-2,.cls-3,.cls-4{stroke:#000;stroke-width:0.75px;}.cls-1,.cls-2,.cls-3{stroke-linecap:round;stroke-linejoin:round;}.cls-3,.cls-5{fill:#fff;}.cls-4{stroke-miterlimit:10;}</style></defs><path class="cls-1" d="M748.2,455.75h0c0-54.4,44.51-98.9,98.91-98.9h0c54.4,0,98.91,44.5,98.91,98.9h0v11.52" transform="translate(-684.63 -245)"/><rect class="cls-1" x="394.59" y="313.78" width="7.06" height="7.06"/><path class="cls-1" d="M1086.86,562.31h98a8.93,8.93,0,1,0,0-17.86" transform="translate(-684.63 -245)"/><path class="cls-1" d="M1193.43,550.77a9,9,0,0,0-8.54-6.32H1114a9,9,0,0,1-8.93-8.93h0a9,9,0,0,1,8.93-8.92h54.76" transform="translate(-684.63 -245)"/><polyline class="cls-1" points="501.48 255.57 495.69 257.06 484.53 281.6 509.06 270.43 510.4 263.99"/><line class="cls-1" x1="484.53" y1="281.6" x2="496.33" y2="269.8"/><rect class="cls-2" x="1187" y="498.75" width="12.84" height="7.15" transform="translate(997.47 1456.41) rotate(-135)"/><path class="cls-1" d="M685,650.91h0c0-54.4,44.51-98.91,98.91-98.91h0c54.4,0,98.91,44.51,98.91,98.91h0" transform="translate(-684.63 -245)"/><path class="cls-1" d="M723.4,669.11v-6.88a1.15,1.15,0,0,1,.82-1.14l35.54-13.92c.49-.17.82,0,.82.49v8.92c0,.58-.25.82-.82,1.07l-21.7,7.94v.16l21.7,8c.57.24.82.49.82,1.06v8.93c0,.49-.33.65-.82.49l-35.54-13.92A1.17,1.17,0,0,1,723.4,669.11Z" transform="translate(-684.63 -245)"/><path class="cls-1" d="M786.21,638.85a1,1,0,0,1,1.06-.82h8.93c.49,0,.73.33.57.82l-17.85,55.84a1,1,0,0,1-1.06.82H769c-.49,0-.73-.33-.57-.82Z" transform="translate(-684.63 -245)"/><path class="cls-1" d="M804.63,674.76c0-.57.17-.82.82-1.06l21.7-8v-.16l-21.7-7.94c-.65-.25-.82-.49-.82-1.07v-8.92c0-.49.33-.66.82-.49L841,661.09a1.15,1.15,0,0,1,.82,1.14v6.88a1.17,1.17,0,0,1-.82,1.15l-35.54,13.92c-.49.16-.82,0-.82-.49Z" transform="translate(-684.63 -245)"/><path class="cls-1" d="M860.86,587.62h0c0-54.4,44.51-98.91,98.91-98.91h0c54.4,0,98.91,44.51,98.91,98.91h0" transform="translate(-684.63 -245)"/><rect class="cls-3" x="254.45" y="215.71" width="41.12" height="64.7" rx="20.56"/><path d="M959.64,460.71h0a20.63,20.63,0,0,0-20.57,20.56v14l38.52-23.93A20.62,20.62,0,0,0,959.64,460.71Z" transform="translate(-684.63 -245)"/><path class="cls-3" d="M939.07,500.69a7.63,7.63,0,0,1,0-15.26Z" transform="translate(-684.63 -245)"/><path class="cls-3" d="M980.2,500.69a7.63,7.63,0,1,0,0-15.26Z" transform="translate(-684.63 -245)"/><polyline class="cls-1" points="273.62 257.78 273.62 264.81 276.4 264.81"/><path class="cls-1" d="M1037.27,526.41c2.18-52.5,45.81-94.77,98.82-94.77h0c54.4,0,98.91,44.51,98.91,98.91h0" transform="translate(-684.63 -245)"/><rect class="cls-2" x="244.13" y="343.45" width="62.05" height="9.69"/><path class="cls-1" d="M903.24,580.85v13.91A12.79,12.79,0,0,0,916,607.52h0a12.79,12.79,0,0,0,12.75-12.76V580.85Z" transform="translate(-684.63 -245)"/><path class="cls-1" d="M990.81,580.85v13.91a12.79,12.79,0,0,0,12.75,12.76h0a12.79,12.79,0,0,0,12.76-12.76V580.85Z" transform="translate(-684.63 -245)"/><line class="cls-1" x1="231.37" y1="335.85" x2="231.37" y2="322.35"/><path class="cls-1" d="M939.14,567.43" transform="translate(-684.63 -245)"/><path class="cls-1" d="M892.86,567.43" transform="translate(-684.63 -245)"/><line class="cls-1" x1="318.94" y1="335.85" x2="318.94" y2="322.35"/><path class="cls-1" d="M255.29,353.14H295a0,0,0,0,1,0,0v10a3.19,3.19,0,0,1-3.19,3.19H258.48a3.19,3.19,0,0,1-3.19-3.19v-10A0,0,0,0,1,255.29,353.14Z"/><line class="cls-1" x1="262.14" y1="366.35" x2="256.28" y2="372.2"/><line class="cls-1" x1="288.18" y1="366.4" x2="294.03" y2="372.25"/><ellipse class="cls-1" cx="231.25" cy="322.35" rx="23.27" ry="5.76"/><ellipse class="cls-1" cx="318.94" cy="322.35" rx="23.27" ry="5.76"/><rect class="cls-3" x="78.79" y="273.91" width="41.12" height="78.84" rx="20.56"/><circle class="cls-1" cx="93.46" cy="311.31" r="3.48"/><circle class="cls-1" cx="105.13" cy="311.31" r="3.48"/><line class="cls-1" x1="96.93" y1="311.31" x2="101.65" y2="311.31"/><circle cx="99.29" cy="345.83" r="25.12"/><path class="cls-3" d="M763.42,563.94a7.63,7.63,0,1,1,0-15.25Z" transform="translate(-684.63 -245)"/><path class="cls-3" d="M804.54,564a7.63,7.63,0,0,0,0-15.25Z" transform="translate(-684.63 -245)"/><path d="M784,518.91h0a20.54,20.54,0,0,0-16,7.69h32A20.57,20.57,0,0,0,784,518.91Z" transform="translate(-684.63 -245)"/><rect class="cls-1" x="91.9" y="186.99" width="128.55" height="45.58"/><polygon class="cls-2" points="228.49 186.99 220.45 186.99 220.45 232.57 228.49 240.61 228.49 186.99"/><polygon class="cls-1" points="228.49 240.61 99.94 240.61 91.9 232.57 220.45 232.57 228.49 240.61"/><line class="cls-1" x1="104.76" y1="186.99" x2="104.76" y2="232.57"/><line class="cls-1" x1="117.61" y1="186.99" x2="117.61" y2="232.57"/><line class="cls-1" x1="130.47" y1="186.99" x2="130.47" y2="232.57"/><line class="cls-1" x1="143.32" y1="186.99" x2="143.32" y2="232.57"/><line class="cls-1" x1="156.18" y1="186.99" x2="156.18" y2="232.57"/><line class="cls-1" x1="169.03" y1="186.99" x2="169.03" y2="232.57"/><line class="cls-1" x1="181.89" y1="186.99" x2="181.89" y2="232.57"/><line class="cls-1" x1="194.74" y1="186.99" x2="194.74" y2="232.57"/><line class="cls-1" x1="207.6" y1="186.99" x2="207.6" y2="232.57"/><rect class="cls-2" x="101.54" y="209.78" width="6.44" height="22.79"/><rect class="cls-2" x="114.39" y="209.78" width="6.44" height="22.79"/><rect class="cls-2" x="140.1" y="209.78" width="6.44" height="22.79"/><rect class="cls-2" x="152.96" y="209.78" width="6.44" height="22.79"/><rect class="cls-2" x="165.81" y="209.78" width="6.44" height="22.79"/><rect class="cls-2" x="191.26" y="209.78" width="6.44" height="22.79"/><rect class="cls-2" x="204.38" y="209.78" width="6.44" height="22.79"/><circle cx="428.06" cy="206.01" r="19"/><rect class="cls-3" x="429.91" y="157.85" width="41.12" height="64.7" rx="20.56"/><path class="cls-3" d="M1114.53,442.82a7.63,7.63,0,0,1,0-15.25Z" transform="translate(-684.63 -245)"/><path class="cls-3" d="M1155.66,442.82a7.63,7.63,0,1,0,0-15.25Z" transform="translate(-684.63 -245)"/><polyline class="cls-1" points="449.08 199.92 449.08 206.95 451.86 206.95"/><circle cx="478.79" cy="221.88" r="19"/><rect x="459.81" y="178.81" width="11.23" height="43.74"/><path d="M1155.66,423.41a20.63,20.63,0,0,0-20.57-20.56h0a20.5,20.5,0,0,0-15.13,6.68l35.7,26.78Z" transform="translate(-684.63 -245)"/><path d="M1155.86,435l-3,1.28L1151.63,449l11.79,8.22,3.85-8.95h0A13.38,13.38,0,0,1,1155.86,435Z" transform="translate(-684.63 -245)"/><polygon class="cls-4" points="173.61 157.19 188.3 147.92 188.3 105.91 173.61 105.91 173.61 157.19"/><rect class="cls-3" x="141.75" y="83.61" width="41.12" height="64.7" rx="20.56"/><path class="cls-3" d="M826.38,368.59a7.63,7.63,0,1,1,0-15.25Z" transform="translate(-684.63 -245)"/><path class="cls-3" d="M867.5,368.59a7.63,7.63,0,0,0,0-15.25Z" transform="translate(-684.63 -245)"/><polyline class="cls-1" points="160.92 125.68 160.92 132.71 163.71 132.71"/><polygon class="cls-4" points="151.02 157.19 136.32 147.92 136.32 105.91 151.02 105.91 151.02 157.19"/><path class="cls-2" d="M846.94,328.61h0a20.62,20.62,0,0,0-20.56,20.56v1.73H867.5v-1.73A20.62,20.62,0,0,0,846.94,328.61Z" transform="translate(-684.63 -245)"/><polygon class="cls-2" points="182.87 105.91 146.91 123.59 148.03 103.73 182.87 105.91"/><path class="cls-2" d="M821,350.93a26,26,0,1,1,52,0Z" transform="translate(-684.63 -245)"/><path class="cls-1" d="M977.94,715.39c1.26-53.33,45.27-96.56,98.88-96.56h0c54.4,0,98.91,44.51,98.91,98.91h0" transform="translate(-684.63 -245)"/><rect class="cls-3" x="371.5" y="345.83" width="41.12" height="64.7" rx="20.56"/><path class="cls-3" d="M1056.13,630.8a7.63,7.63,0,1,1,0-15.25Z" transform="translate(-684.63 -245)"/><path class="cls-3" d="M1097.25,630.8a7.63,7.63,0,1,0,0-15.25Z" transform="translate(-684.63 -245)"/><path class="cls-1" d="M801.11,776.16h0c0-54.4,44.51-98.91,98.91-98.91h0c54.4,0,98.91,44.51,98.91,98.91h0" transform="translate(-684.63 -245)"/><path class="cls-1" d="M924.89,394.83c1.85-52.81,45.61-95.44,98.85-95.44h0c54.4,0,98.91,44.51,98.91,98.91h0v9.21" transform="translate(-684.63 -245)"/><circle cx="392.06" cy="344.33" r="8.46"/><path d="M1076.69,590.83a20.64,20.64,0,0,0-19.44,13.92h38.87A20.63,20.63,0,0,0,1076.69,590.83Z" transform="translate(-684.63 -245)"/><polyline class="cls-1" points="389.88 387.9 389.88 394.93 392.66 394.93"/><rect class="cls-1" x="377.88" y="378.18" width="12" height="12" rx="2"/><rect class="cls-1" x="394.39" y="378.18" width="12" height="12" rx="2"/><polygon class="cls-2" points="349.07 518.33 432.56 518.33 426.08 511.86 349.07 511.86 349.07 518.33"/><path class="cls-5" d="M1024.85,759.53v-9.14a1.09,1.09,0,0,1,1.09-1.09h8.69a1.09,1.09,0,0,1,1.09,1.09v9.14a2.71,2.71,0,0,0,2.71,2.71,1.1,1.1,0,0,1,0,2.19h-8.69A4.9,4.9,0,0,1,1024.85,759.53Zm8.68,0v-8H1027v8a2.71,2.71,0,0,0,2.7,2.71h4.61A4.86,4.86,0,0,1,1033.53,759.53Z" transform="translate(-684.63 -245)"/><rect class="cls-1" x="1025.94" y="674.57" width="8.68" height="66.69" transform="translate(1375.94 1170.82) rotate(-180)"/><circle class="cls-3" cx="345.66" cy="429.57" r="4.34"/><rect class="cls-3" x="1025.94" y="741.25" width="8.68" height="9.14" transform="translate(1375.94 1246.64) rotate(-180)"/><path class="cls-3" d="M1034.63,759.53v-9.14h-8.69v9.14a3.8,3.8,0,0,0,3.8,3.8h8.69A3.8,3.8,0,0,1,1034.63,759.53Z" transform="translate(-684.63 -245)"/><path class="cls-2" d="M1038.43,763.33h-8.69a3.8,3.8,0,0,1-3.8-3.8v-2.67h8.69v2.67A3.8,3.8,0,0,0,1038.43,763.33Z" transform="translate(-684.63 -245)"/><path class="cls-1" d="M1139.28,672.15a38.61,38.61,0,0,1-55.37,53.79" transform="translate(-684.63 -245)"/><path class="cls-1" d="M1085.81,727.84a38.61,38.61,0,0,1,53.47-55.69" transform="translate(-684.63 -245)"/><path class="cls-1" d="M1139.28,672.15a38.61,38.61,0,1,1-53.47,55.69" transform="translate(-684.63 -245)"/><circle class="cls-1" cx="441.62" cy="468.67" r="7.11"/><circle cx="399.36" cy="447.22" r="3.94"/><circle cx="404.85" cy="436.06" r="3.94"/><circle cx="404.85" cy="470.64" r="3.94"/><circle cx="399.36" cy="459.48" r="3.94"/><path class="cls-1" d="M1049.46,401a25.72,25.72,0,1,0-41.87,20h0c.32.26.65.51,1,.76a11.05,11.05,0,0,1,3.34,8.47,4.26,4.26,0,0,0,4.25,4.25h15.12a4.27,4.27,0,0,0,4.26-4.25v-.13a11.05,11.05,0,0,1,3.31-8.33A25.68,25.68,0,0,0,1049.46,401Z" transform="translate(-684.63 -245)"/><path class="cls-1" d="M1003.17,401a20.57,20.57,0,0,1,20.57-20.58" transform="translate(-684.63 -245)"/><line class="cls-1" x1="339.12" y1="110.17" x2="339.12" y2="118.26"/><line class="cls-1" x1="306.63" y1="123.63" x2="311.96" y2="128.96"/><line class="cls-1" x1="366.27" y1="183.27" x2="371.6" y2="188.6"/><line class="cls-1" x1="293.18" y1="156.11" x2="301.26" y2="156.11"/><line class="cls-1" x1="376.97" y1="156.11" x2="385.06" y2="156.11"/><line class="cls-1" x1="306.63" y1="188.6" x2="311.96" y2="183.27"/><line class="cls-1" x1="366.27" y1="128.96" x2="371.6" y2="123.63"/><path class="cls-3" d="M1032.44,433.6a8.7,8.7,0,1,0-17.35.88H1015v9.24h17.4v-9.24h0A8.64,8.64,0,0,0,1032.44,433.6Z" transform="translate(-684.63 -245)"/><circle class="cls-2" cx="339.12" cy="198.72" r="8.7"/><path class="cls-3" d="M1023.74,442.44a4.11,4.11,0,0,0-4.11,4.11v3.33h8.23v-3.33A4.11,4.11,0,0,0,1023.74,442.44Z" transform="translate(-684.63 -245)"/><circle class="cls-2" cx="339.12" cy="204.88" r="4.12"/><rect class="cls-3" x="318.42" y="26.38" width="41.12" height="64.7" rx="20.56"/><path class="cls-3" d="M1003,311.36a7.63,7.63,0,0,1,0-15.25Z" transform="translate(-684.63 -245)"/><path class="cls-3" d="M1044.17,311.36a7.63,7.63,0,1,0,0-15.25Z" transform="translate(-684.63 -245)"/><polyline class="cls-1" points="337.59 68.45 337.59 75.48 340.37 75.48"/><rect class="cls-1" x="174.95" y="490.86" width="50.39" height="50.39"/><rect class="cls-1" x="189.19" y="505.11" width="21.91" height="21.91"/><polygon class="cls-1" points="225.34 541.26 174.95 541.26 177.3 543.62 227.7 543.62 225.34 541.26"/><polygon class="cls-2" points="227.7 490.86 225.34 490.86 225.34 541.26 227.7 543.62 227.7 490.86"/><line class="cls-1" x1="192.84" y1="505.11" x2="192.84" y2="499.98"/><line class="cls-1" x1="200.14" y1="505.11" x2="200.14" y2="499.98"/><polyline class="cls-1" points="185.54 499.98 185.54 511.54 189.19 511.54"/><line class="cls-1" x1="207.45" y1="505.11" x2="207.45" y2="499.98"/><polyline class="cls-1" points="214.75 499.98 214.75 511.54 211.1 511.54"/><line class="cls-1" x1="192.84" y1="532.14" x2="192.84" y2="527.02"/><line class="cls-1" x1="200.14" y1="532.14" x2="200.14" y2="527.02"/><line class="cls-1" x1="207.45" y1="532.14" x2="207.45" y2="527.02"/><circle class="cls-1" cx="192.84" cy="498.06" r="1.92"/><circle class="cls-1" cx="185.54" cy="498.06" r="1.92"/><circle class="cls-1" cx="200.14" cy="498.06" r="1.92"/><circle class="cls-1" cx="207.45" cy="498.06" r="1.92"/><circle class="cls-1" cx="214.75" cy="498.06" r="1.92"/><polyline class="cls-1" points="185.54 532.14 185.54 520.59 189.19 520.59"/><polyline class="cls-1" points="214.75 532.14 214.75 520.59 211.1 520.59"/><circle class="cls-1" cx="185.54" cy="534.06" r="1.92"/><circle class="cls-1" cx="214.75" cy="534.06" r="1.92"/><circle class="cls-1" cx="192.84" cy="534.06" r="1.92"/><circle class="cls-1" cx="200.14" cy="534.06" r="1.92"/><circle class="cls-1" cx="207.45" cy="534.06" r="1.92"/><path class="cls-3" d="M933.6,785.74v14.39a.94.94,0,0,0,1.87,0V785.74Z" transform="translate(-684.63 -245)"/><path class="cls-3" d="M928.6,775.22v6.56a5.94,5.94,0,0,0,11.87,0v-6.56Z" transform="translate(-684.63 -245)"/><circle class="cls-3" cx="249.91" cy="530.22" r="5.93"/><path class="cls-3" d="M930.19,727.32v47.9a4.35,4.35,0,1,0,8.69,0v-47.9Z" transform="translate(-684.63 -245)"/><circle class="cls-3" cx="249.91" cy="482.32" r="4.34"/><rect class="cls-3" x="194.5" y="404.25" width="41.12" height="64.7" rx="20.56"/><path class="cls-3" d="M879.13,689.22a7.63,7.63,0,1,1,0-15.25Z" transform="translate(-684.63 -245)"/><path class="cls-3" d="M920.25,689.22a7.63,7.63,0,1,0,0-15.25Z" transform="translate(-684.63 -245)"/><polyline class="cls-1" points="213.67 446.32 213.67 453.35 216.46 453.35"/><rect class="cls-3" x="194.5" y="422.19" width="4.39" height="12.55"/><rect class="cls-3" x="231.24" y="422.19" width="4.39" height="12.55"/><circle cx="225.03" cy="410.11" r="18.36"/><circle cx="199.81" cy="411.14" r="13.7"/><path d="M1055.73,277.12A32.13,32.13,0,1,0,1003,301.8v-9.14h41.13v9.14A32.06,32.06,0,0,0,1055.73,277.12Z" transform="translate(-684.63 -245)"/><line class="cls-1" x1="374.06" y1="342.62" x2="374.06" y2="356.17"/></svg>