<svg viewBox="0 0 760 760" xmlns="http://www.w3.org/2000/svg"><g stroke="#000" stroke-linecap="round" stroke-linejoin="round" stroke-width=".5"><ellipse cx="380.19" cy="380.54" fill="none" rx="164.35" ry="379.71"/><ellipse cx="380.19" cy="380.54" fill="none" rx="379.65" ry="164.37"/><path d="m1103.37 518.59c0 209.71-73.58 379.71-164.34 379.71 209.83 0 379.94-170.14 379.94-380s-170.11-380-379.94-380v.59c90.76 0 164.34 170 164.34 379.7z" transform="translate(-558.83 -138.05)"/><g fill="none"><path d="m939 898.3c90.76 0 164.34-170 164.34-379.71s-73.55-379.7-164.34-379.7v-.59c-209.84 0-379.95 170.13-379.95 380s170.14 380 379.95 380z" transform="translate(-558.83 -138.05)"/><path d="m229.33 229.66 301.74 301.65"/><path d="m380.19.84v759.41"/><path d="m.25 380.25h607.46"/></g><path d="m1286.71 170.85c-41.26-41.26-117-40.28-206.31-5.34q9 3.6 17.74 7.65c36.37-13 70.35-20 100.36-20 34 0 60.48 9.19 78.59 27.3 35.6 35.61 36.17 106.19 1.56 193.66-36.57 92.42-107.15 193.76-198.74 285.36-136.35 136.4-293.5 224.52-400.36 224.52-34 0-60.48-9.18-78.58-27.3-33.62-33.62-36-98.44-7-179.2q-4.11-8.89-7.76-18c-35.14 89.5-36.21 165.5 5.13 206.83 83.13 83.14 306.18-5.15 498.2-197.2s280.3-415.13 197.17-498.28z" fill="#fff" transform="translate(-558.83 -138.05)"/></g></svg>