<svg viewBox="0 0 530 530" xmlns="http://www.w3.org/2000/svg"><g stroke="#000" stroke-linecap="round" stroke-linejoin="round" stroke-width=".75"><ellipse cx="265.33" cy="265.58" fill="none" rx="114.61" ry="264.79"/><ellipse cx="265.33" cy="265.58" fill="none" rx="264.75" ry="114.63"/><path d="m1074.61 530.4c0 146.24-51.31 264.79-114.61 264.79 146.33 0 265-118.64 265-265s-118.63-265-265-265v.41c63.3 0 114.61 118.56 114.61 264.8z" transform="translate(-694.67 -264.82)"/><g fill="none"><path d="m960 795.19c63.3 0 114.61-118.55 114.61-264.79s-51.31-264.8-114.61-264.8v-.41c-146.33 0-265 118.65-265 265s118.67 265 265 265z" transform="translate(-694.67 -264.82)"/><path d="m160.13 160.36 210.43 210.36"/><path d="m265.33.79v529.58"/><path d="m.38 265.37h423.62"/></g><path d="m1202.46 287.9c-28.77-28.78-81.59-28.09-143.87-3.73q6.27 2.5 12.37 5.33c25.37-9.08 49.06-13.92 70-13.92 23.74 0 42.17 6.4 54.8 19 24.83 24.83 25.23 74.06 1.09 135.05-25.5 64.45-74.72 135.13-138.59 199-95.09 95.11-204.68 156.56-279.2 156.56-23.74 0-42.17-6.4-54.8-19-23.45-23.45-25.1-68.65-4.89-125q-2.87-6.19-5.37-12.56c-24.5 62.45-25.25 115.43 3.59 144.27 58 58 213.51-3.59 347.42-137.52s195.42-289.5 137.45-347.48z" fill="#fff" transform="translate(-694.67 -264.82)"/></g></svg>