<svg id="レイヤー_1" data-name="レイヤー 1" xmlns="http://www.w3.org/2000/svg" viewBox="0 0 760.38 760.5"><defs><style>.cls-1{fill:none;}.cls-1,.cls-2,.cls-3{stroke:#000;stroke-linecap:round;stroke-linejoin:round;stroke-width:0.5px;}.cls-3{fill:#fff;}</style></defs><ellipse class="cls-1" cx="380.19" cy="380.54" rx="164.35" ry="379.71"/><ellipse class="cls-1" cx="380.19" cy="380.54" rx="379.65" ry="164.37"/><path class="cls-2" d="M1103.37,518.59c0,209.71-73.58,379.71-164.34,379.71,209.83,0,379.94-170.14,379.94-380s-170.11-380-379.94-380v.59C1029.79,138.89,1103.37,308.89,1103.37,518.59Z" transform="translate(-558.83 -138.05)"/><path class="cls-1" d="M939,898.3c90.76,0,164.34-170,164.34-379.71S1029.79,138.89,939,138.89v-.59c-209.84,0-379.95,170.13-379.95,380S729.19,898.3,939,898.3Z" transform="translate(-558.83 -138.05)"/><line class="cls-1" x1="229.33" y1="229.66" x2="531.07" y2="531.31"/><line class="cls-1" x1="380.19" y1="0.84" x2="380.19" y2="760.25"/><line class="cls-1" x1="0.25" y1="380.25" x2="607.71" y2="380.25"/><path class="cls-3" d="M1286.71,170.85c-41.26-41.26-117-40.28-206.31-5.34q9,3.6,17.74,7.65c36.37-13,70.35-20,100.36-20,34,0,60.48,9.19,78.59,27.3,35.6,35.61,36.17,106.19,1.56,193.66-36.57,92.42-107.15,193.76-198.74,285.36C943.56,795.88,786.41,884,679.55,884c-34,0-60.48-9.18-78.58-27.3-33.62-33.62-36-98.44-7-179.2q-4.11-8.89-7.76-18C551.07,749,550,825,591.34,866.33c83.13,83.14,306.18-5.15,498.2-197.2S1369.84,254,1286.71,170.85Z" transform="translate(-558.83 -138.05)"/></svg>