<svg id="レイヤー_1" data-name="レイヤー 1" xmlns="http://www.w3.org/2000/svg" viewBox="0 0 530 530"><defs><style>.cls-1{fill:none;}.cls-1,.cls-2,.cls-3{stroke:#000;stroke-linecap:round;stroke-linejoin:round;stroke-width:0.75px;}.cls-3{fill:#fff;}</style></defs><ellipse class="cls-1" cx="265.33" cy="265.58" rx="114.61" ry="264.79"/><ellipse class="cls-1" cx="265.33" cy="265.58" rx="264.75" ry="114.63"/><path class="cls-2" d="M1074.61,530.4c0,146.24-51.31,264.79-114.61,264.79,146.33,0,265-118.64,265-265s-118.63-265-265-265v.41C1023.3,265.6,1074.61,384.16,1074.61,530.4Z" transform="translate(-694.67 -264.82)"/><path class="cls-1" d="M960,795.19c63.3,0,114.61-118.55,114.61-264.79S1023.3,265.6,960,265.6v-.41c-146.33,0-265,118.65-265,265S813.67,795.19,960,795.19Z" transform="translate(-694.67 -264.82)"/><line class="cls-1" x1="160.13" y1="160.36" x2="370.56" y2="370.72"/><line class="cls-1" x1="265.33" y1="0.79" x2="265.33" y2="530.37"/><line class="cls-1" x1="0.38" y1="265.37" x2="424" y2="265.37"/><path class="cls-3" d="M1202.46,287.9c-28.77-28.78-81.59-28.09-143.87-3.73q6.27,2.5,12.37,5.33c25.37-9.08,49.06-13.92,70-13.92,23.74,0,42.17,6.4,54.8,19,24.83,24.83,25.23,74.06,1.09,135.05-25.5,64.45-74.72,135.13-138.59,199-95.09,95.11-204.68,156.56-279.2,156.56-23.74,0-42.17-6.4-54.8-19-23.45-23.45-25.1-68.65-4.89-125Q716.5,635,714,628.63c-24.5,62.45-25.25,115.43,3.59,144.27,58,58,213.51-3.59,347.42-137.52S1260.43,345.88,1202.46,287.9Z" transform="translate(-694.67 -264.82)"/></svg>