<svg id="レイヤー_1" data-name="レイヤー 1" xmlns="http://www.w3.org/2000/svg" viewBox="0 0 550 558"><defs><style>.cls-1,.cls-3,.cls-4{fill:none;}.cls-1,.cls-2,.cls-3,.cls-4,.cls-5,.cls-6{stroke:#000;stroke-width:0.75px;}.cls-1,.cls-2{stroke-linecap:round;stroke-linejoin:round;}.cls-3,.cls-5,.cls-6{stroke-miterlimit:10;}.cls-5{fill:#fff;}</style></defs><circle cx="170.67" cy="47.13" r="6.33"/><circle class="cls-1" cx="183.24" cy="347.21" r="5.49"/><circle cx="183.24" cy="347.21" r="2.49"/><polyline class="cls-1" points="187.13 351.09 69.81 468.41 62.04 460.64 179.36 343.32"/><polyline class="cls-1" points="62.04 460.64 48.77 481.68 69.81 468.41"/><circle class="cls-1" cx="189.35" cy="370.13" r="5.49"/><circle cx="189.35" cy="370.13" r="2.49"/><polyline class="cls-1" points="193.24 374.01 75.92 491.33 68.15 483.56 185.47 366.24"/><polyline class="cls-2" points="68.15 483.56 54.88 504.6 75.92 491.33"/><circle class="cls-1" cx="212.27" cy="376.23" r="5.49"/><circle cx="212.27" cy="376.23" r="2.49"/><polyline class="cls-1" points="216.16 380.12 98.84 497.44 91.07 489.66 208.38 372.35"/><polyline class="cls-1" points="91.07 489.66 77.8 510.7 98.84 497.44"/><circle class="cls-3" cx="367.44" cy="231.04" r="13.81"/><path class="cls-3" d="M1043.72,481.24a13.81,13.81,0,1,1,19.35,19.35" transform="translate(-684.63 -261.19)"/><path class="cls-3" d="M1079.52,575.12V502a13.77,13.77,0,0,0-13.73-13.73h-.38" transform="translate(-684.63 -261.19)"/><polygon class="cls-2" points="453.85 313.88 413 313.88 413 169.17 453.85 128.31 453.85 313.88"/><circle class="cls-3" cx="95.59" cy="142.99" r="4.67"/><polygon class="cls-2" points="132.73 151.36 127.9 151.36 127.9 47.92 132.73 43.09 132.73 151.36"/><rect class="cls-3" x="71.64" y="56.3" width="47.88" height="78.01"/><rect class="cls-1" x="53.19" y="345.58" width="24.8" height="15.78"/><line class="cls-1" x1="33.83" y1="361.36" x2="97.35" y2="361.36"/><polygon class="cls-2" points="138.49 345.58 130.7 345.58 130.7 269.04 138.49 261.25 138.49 345.58"/><rect class="cls-2" x="77.99" y="345.58" width="3.9" height="15.78"/><rect class="cls-3" x="6.67" y="275.24" width="117.83" height="64.15"/><circle class="cls-1" cx="47.28" cy="307.18" r="20.1"/><polygon points="79.97 285.19 79.97 309.55 55.62 309.55 79.97 285.19"/><rect class="cls-1" x="84.42" y="300.14" width="19.58" height="19.58"/><path class="cls-4" d="M1106.31,349.49l-2.25-7.35c-.1-.2-.23-.3-.38-.3h-18.45c-.15,0-.27.1-.37.3l-2.18,7.35a.94.94,0,0,1-1,.75h-9.53a.81.81,0,0,1-.67-.26.82.82,0,0,1-.08-.79l16.2-50.7a1,1,0,0,1,1-.75h11.77a1,1,0,0,1,1,.75l16.2,50.7a.86.86,0,0,1,.07.38c0,.45-.27.67-.82.67h-9.53A.94.94,0,0,1,1106.31,349.49Zm-18.45-15.82h13.2q.45,0,.3-.45l-6.75-22.28c0-.2-.13-.29-.23-.26s-.17.11-.22.26l-6.6,22.28Q1087.49,333.67,1087.86,333.67Z" transform="translate(-684.63 -261.19)"/><rect class="cls-4" x="373.72" y="26.27" width="72.19" height="72.19"/><line class="cls-4" x1="409.81" y1="26.27" x2="409.81" y2="98.46"/><line class="cls-4" x1="445.91" y1="62.37" x2="373.72" y2="62.37"/><path class="cls-5" d="M701.27,448.71H844.75a12.71,12.71,0,0,0,12.7-12.7V308.52a2.15,2.15,0,0,0-4.3,0V436a8.41,8.41,0,0,1-8.4,8.4H701.27a12.71,12.71,0,0,0,0,25.41H818.94a8.4,8.4,0,0,1,0,16.8h-19.7a2.15,2.15,0,1,0,0,4.3h19.7a12.71,12.71,0,0,0,0-25.41H701.27a8.4,8.4,0,0,1,0-16.8Z" transform="translate(-684.63 -261.19)"/><path class="cls-5" d="M798.28,482.26h-21V495h21a6.38,6.38,0,1,0,0-12.76Z" transform="translate(-684.63 -261.19)"/><circle class="cls-2" cx="92.62" cy="227.44" r="6.38"/><path class="cls-5" d="M776,486.67H757.56v4.24H776a2.13,2.13,0,1,0,0-4.25Z" transform="translate(-684.63 -261.19)"/><circle class="cls-5" cx="72.94" cy="227.6" r="2.13"/><circle cx="397.93" cy="353" r="6.33"/><path class="cls-5" d="M1156.31,663.1a12.71,12.71,0,0,0-12.7,12.7v57.39a8.4,8.4,0,1,1-16.8,0V674h0v-19.7a12.71,12.71,0,0,0-25.41,0V765.48a8.4,8.4,0,0,1-16.8,0v-151h0a1.84,1.84,0,0,0,0-.33,2.15,2.15,0,1,0-4.3,0,1.84,1.84,0,0,0,0,.33h0v151a12.71,12.71,0,0,0,25.41,0V654.27a8.4,8.4,0,0,1,16.8,0v13h0v.32h0v65.61a12.71,12.71,0,1,0,25.41,0V675.8a8.4,8.4,0,1,1,16.79,0v19.7a2.16,2.16,0,0,0,4.31,0V675.8A12.71,12.71,0,0,0,1156.31,663.1Z" transform="translate(-684.63 -261.19)"/><path class="cls-5" d="M1160.41,683.7v21h12.76v-21a6.38,6.38,0,0,0-12.76,0Z" transform="translate(-684.63 -261.19)"/><circle class="cls-2" cx="482.16" cy="443.54" r="6.38"/><path class="cls-5" d="M1164.82,706v18.45h4.24V706.06s0-.06,0-.09a2.13,2.13,0,1,0-4.25,0Z" transform="translate(-684.63 -261.19)"/><circle class="cls-5" cx="482.32" cy="463.22" r="2.13"/><path d="M928.62,713.55a17,17,0,1,0,34,0Z" transform="translate(-684.63 -261.19)"/><rect class="cls-6" x="265.68" y="393.61" width="10.99" height="29.97" rx="3.16"/><rect class="cls-6" x="336.91" y="393.61" width="10.99" height="29.97" rx="3.16"/><path class="cls-6" d="M939.7,676.72H938a3.08,3.08,0,0,1-3.07-3.07v-7.73a3.07,3.07,0,0,1,3.07-3.06h1.7Z" transform="translate(-684.63 -261.19)"/><path class="cls-6" d="M1043.48,676.72h1.7a3.08,3.08,0,0,0,3.07-3.07v-7.73a3.08,3.08,0,0,0-3.07-3.06h-1.7Z" transform="translate(-684.63 -261.19)"/><path class="cls-3" d="M1037.72,677.32a2.15,2.15,0,0,1-2.15-2.15V653.43a41,41,0,0,0-40.9-40.9h-6.51a41,41,0,0,0-40.9,40.9v21.74a2.15,2.15,0,0,1-4.3,0V653.43a45.25,45.25,0,0,1,45.2-45.2h6.51a45.26,45.26,0,0,1,45.21,45.2v21.74A2.16,2.16,0,0,1,1037.72,677.32Z" transform="translate(-684.63 -261.19)"/><path class="cls-5" d="M1176.62,609.73c-3.7,0-6.7,7.31-6.7,16.33s3,16.33,6.7,16.33h9V609.73Z" transform="translate(-684.63 -261.19)"/><ellipse class="cls-6" cx="500.97" cy="364.86" rx="6.7" ry="16.33"/><path class="cls-5" d="M1187.12,609.73c-3.7,0-6.69,7.31-6.69,16.33s3,16.33,6.69,16.33h30.68V609.73Z" transform="translate(-684.63 -261.19)"/><ellipse class="cls-6" cx="533.17" cy="364.86" rx="6.7" ry="16.33"/><path class="cls-5" d="M1219.33,609.73c-3.7,0-6.7,7.31-6.7,16.33s3,16.33,6.7,16.33h9V609.73Z" transform="translate(-684.63 -261.19)"/><ellipse class="cls-6" cx="543.68" cy="364.86" rx="6.7" ry="16.33"/><polygon class="cls-2" points="536.53 175.13 530.59 175.13 530.59 121.02 536.53 115.08 536.53 175.13"/><path class="cls-5" d="M1196.52,436.32V612.53a3,3,0,0,0,5.94,0V436.32Z" transform="translate(-684.63 -261.19)"/><rect class="cls-5" x="230.92" y="0.38" width="106.07" height="71.35"/><rect class="cls-6" x="220.59" y="10.71" width="106.07" height="71.35"/><rect class="cls-5" x="210.26" y="21.04" width="106.07" height="71.35"/><circle class="cls-1" cx="263.29" cy="56.71" r="25.01"/><polygon class="cls-1" points="275.25 57.27 257.07 46.78 257.07 67.76 275.25 57.27"/><polygon class="cls-3" points="214.45 313.88 214.45 169.17 255.31 128.31 453.85 128.31 453.85 313.88 214.45 313.88"/><line class="cls-3" x1="214.45" y1="169.17" x2="418.66" y2="169.17"/><line class="cls-3" x1="238.95" y1="244.85" x2="332.55" y2="244.85"/><line class="cls-3" x1="270.15" y1="313.88" x2="270.15" y2="244.85"/><line class="cls-3" x1="301.35" y1="313.88" x2="301.35" y2="244.85"/><polyline class="cls-3" points="238.95 313.88 238.95 222.26 332.56 222.26 332.56 313.88"/><path class="cls-3" d="M747.9,309.12l4.83-4.83h64.62V412.55H747.9S747.6,308.82,747.9,309.12Z" transform="translate(-684.63 -261.19)"/><line class="cls-3" x1="63.27" y1="47.92" x2="130.84" y2="47.92"/><path class="cls-3" d="M685.1,530.23l7.8-7.79H823.12v84.33h-138S684.87,530.46,685.1,530.23Z" transform="translate(-684.63 -261.19)"/><line class="cls-3" x1="0.48" y1="269.04" x2="133.89" y2="269.04"/><path class="cls-3" d="M872.75,713.55h145.69v31.92H986.52v73H904.67v-73H872.75Z" transform="translate(-684.63 -261.19)"/><line class="cls-3" x1="301.89" y1="484.28" x2="301.89" y2="452.31"/><line class="cls-3" x1="220.05" y1="484.28" x2="220.05" y2="452.42"/><path class="cls-1" d="M1177.82,382.21l6-5.94h37.39v60.05h-43.34Z" transform="translate(-684.63 -261.19)"/><line class="cls-1" x1="493.2" y1="121.02" x2="531.65" y2="121.02"/></svg>