<svg id="レイヤー_1" data-name="レイヤー 1" xmlns="http://www.w3.org/2000/svg" viewBox="0 0 760.9 769.03"><defs><style>.cls-1{fill:none;}.cls-1,.cls-2,.cls-3,.cls-4{stroke:#000;stroke-width:0.5px;}.cls-1,.cls-2,.cls-3{stroke-linecap:round;stroke-linejoin:round;}.cls-3,.cls-5{fill:#fff;}.cls-4{stroke-miterlimit:10;}</style></defs><path class="cls-1" d="M667.09,446.37h0c0-75.21,61.54-136.74,136.75-136.74h0c75.21,0,136.75,61.53,136.75,136.74h0v15.94" transform="translate(-579.47 -155.01)"/><rect class="cls-1" x="545.26" y="433.81" width="9.76" height="9.76"/><path class="cls-1" d="M1135.3,593.7h135.51a12.34,12.34,0,1,0,0-24.68" transform="translate(-579.47 -155.01)"/><path class="cls-1" d="M1282.64,577.75a12.38,12.38,0,0,0-11.8-8.73h-97.95a12.39,12.39,0,0,1-12.35-12.35h0a12.38,12.38,0,0,1,12.35-12.34h75.7" transform="translate(-579.47 -155.01)"/><polyline class="cls-1" points="693.04 353.34 685.05 355.4 669.62 389.32 703.53 373.88 705.38 364.98"/><line class="cls-1" x1="669.62" y1="389.32" x2="685.92" y2="373.01"/><rect class="cls-2" x="1273.76" y="505.84" width="17.75" height="9.89" transform="translate(1248.94 1623.91) rotate(-135)"/><path class="cls-1" d="M579.72,716.2h0c0-75.21,61.53-136.74,136.74-136.74h0c75.22,0,136.75,61.53,136.75,136.74h0" transform="translate(-579.47 -155.01)"/><path class="cls-1" d="M632.81,741.36v-9.51a1.59,1.59,0,0,1,1.13-1.58L683.07,711c.68-.22,1.14,0,1.14.68V724c0,.79-.34,1.13-1.14,1.47l-30,11v.23l30,11c.8.34,1.14.68,1.14,1.47v12.34c0,.68-.46.91-1.14.68L633.94,743A1.61,1.61,0,0,1,632.81,741.36Z" transform="translate(-579.47 -155.01)"/><path class="cls-1" d="M719.64,699.53a1.37,1.37,0,0,1,1.48-1.14h12.33a.78.78,0,0,1,.8,1.14l-24.68,77.2a1.37,1.37,0,0,1-1.47,1.13H695.87a.77.77,0,0,1-.79-1.13Z" transform="translate(-579.47 -155.01)"/><path class="cls-1" d="M745.12,749.17c0-.79.22-1.13,1.13-1.47l30-11v-.23l-30-11c-.91-.34-1.13-.68-1.13-1.47V711.7c0-.68.45-.9,1.13-.68l49.13,19.25a1.59,1.59,0,0,1,1.13,1.58v9.51a1.61,1.61,0,0,1-1.13,1.59l-49.13,19.24c-.68.23-1.13,0-1.13-.68Z" transform="translate(-579.47 -155.01)"/><path class="cls-1" d="M822.86,628.7h0C822.86,553.49,884.39,492,959.6,492h0c75.21,0,136.75,61.53,136.75,136.74h0" transform="translate(-579.47 -155.01)"/><rect class="cls-3" x="351.52" y="298.23" width="56.86" height="89.45" rx="27.73"/><path d="M959.41,453.24h0A28.5,28.5,0,0,0,931,481.66v19.28l53.24-33.07A28.47,28.47,0,0,0,959.41,453.24Z" transform="translate(-579.47 -155.01)"/><path class="cls-3" d="M931,508.51a10.55,10.55,0,1,1,0-21.09Z" transform="translate(-579.47 -155.01)"/><path class="cls-3" d="M987.84,508.51a10.55,10.55,0,1,0,0-21.09Z" transform="translate(-579.47 -155.01)"/><polyline class="cls-1" points="378.02 356.39 378.02 366.11 381.87 366.11"/><path class="cls-1" d="M1066.74,544.08c3-72.59,63.33-131,136.63-131h0c75.21,0,136.75,61.53,136.75,136.74h0" transform="translate(-579.47 -155.01)"/><rect class="cls-2" x="337.25" y="474.83" width="85.79" height="13.4"/><path class="cls-1" d="M881.45,619.33v19.24a17.68,17.68,0,0,0,17.63,17.63h0a17.69,17.69,0,0,0,17.64-17.63V619.33Z" transform="translate(-579.47 -155.01)"/><path class="cls-1" d="M1002.51,619.33v19.24a17.68,17.68,0,0,0,17.63,17.63h0a17.69,17.69,0,0,0,17.64-17.63V619.33Z" transform="translate(-579.47 -155.01)"/><line class="cls-1" x1="319.61" y1="464.32" x2="319.61" y2="445.67"/><path class="cls-1" d="M931.08,600.78" transform="translate(-579.47 -155.01)"/><path class="cls-1" d="M867.09,600.78" transform="translate(-579.47 -155.01)"/><line class="cls-1" x1="440.68" y1="464.32" x2="440.68" y2="445.67"/><path class="cls-1" d="M352.69,488.23h54.92a0,0,0,0,1,0,0v15.07a3.19,3.19,0,0,1-3.19,3.19H355.88a3.19,3.19,0,0,1-3.19-3.19V488.23A0,0,0,0,1,352.69,488.23Z"/><line class="cls-1" x1="362.14" y1="506.5" x2="354.05" y2="514.59"/><line class="cls-1" x1="398.15" y1="506.56" x2="406.24" y2="514.65"/><ellipse class="cls-1" cx="319.44" cy="445.67" rx="32.17" ry="7.97"/><ellipse class="cls-1" cx="440.68" cy="445.67" rx="32.17" ry="7.97"/><rect class="cls-3" x="108.66" y="378.7" width="56.86" height="109" rx="27.73"/><circle class="cls-1" cx="128.94" cy="430.4" r="4.81"/><circle class="cls-1" cx="145.08" cy="430.4" r="4.81"/><line class="cls-1" x1="133.74" y1="430.4" x2="140.27" y2="430.4"/><circle cx="137.01" cy="478.12" r="34.72"/><path class="cls-3" d="M688.13,596a10.55,10.55,0,0,1,0-21.09Z" transform="translate(-579.47 -155.01)"/><path class="cls-3" d="M745,596A10.54,10.54,0,0,0,745,575Z" transform="translate(-579.47 -155.01)"/><path d="M716.56,533.71h0a28.39,28.39,0,0,0-22.11,10.63h44.22A28.39,28.39,0,0,0,716.56,533.71Z" transform="translate(-579.47 -155.01)"/><rect class="cls-1" x="126.79" y="258.52" width="177.73" height="63.02"/><polygon class="cls-2" points="315.63 258.52 304.52 258.52 304.52 321.54 315.63 332.65 315.63 258.52"/><polygon class="cls-1" points="315.63 332.65 137.9 332.65 126.79 321.54 304.52 321.54 315.63 332.65"/><line class="cls-1" x1="144.56" y1="258.52" x2="144.56" y2="321.54"/><line class="cls-1" x1="162.34" y1="258.52" x2="162.34" y2="321.54"/><line class="cls-1" x1="180.11" y1="258.52" x2="180.11" y2="321.54"/><line class="cls-1" x1="197.88" y1="258.52" x2="197.88" y2="321.54"/><line class="cls-1" x1="215.65" y1="258.52" x2="215.65" y2="321.54"/><line class="cls-1" x1="233.43" y1="258.52" x2="233.43" y2="321.54"/><line class="cls-1" x1="251.2" y1="258.52" x2="251.2" y2="321.54"/><line class="cls-1" x1="268.97" y1="258.52" x2="268.97" y2="321.54"/><line class="cls-1" x1="286.75" y1="258.52" x2="286.75" y2="321.54"/><rect class="cls-2" x="140.11" y="290.03" width="8.91" height="31.51"/><rect class="cls-2" x="157.88" y="290.03" width="8.91" height="31.51"/><rect class="cls-2" x="193.43" y="290.03" width="8.91" height="31.51"/><rect class="cls-2" x="211.2" y="290.03" width="8.91" height="31.51"/><rect class="cls-2" x="228.97" y="290.03" width="8.91" height="31.51"/><rect class="cls-2" x="264.15" y="290.03" width="8.91" height="31.51"/><rect class="cls-2" x="282.29" y="290.03" width="8.91" height="31.51"/><circle cx="591.54" cy="284.81" r="26.27"/><rect class="cls-3" x="594.1" y="218.23" width="56.86" height="89.45" rx="27.73"/><path class="cls-3" d="M1173.57,428.51a10.54,10.54,0,1,1,0-21.08Z" transform="translate(-579.47 -155.01)"/><path class="cls-3" d="M1230.42,428.51a10.54,10.54,0,1,0,0-21.08Z" transform="translate(-579.47 -155.01)"/><polyline class="cls-1" points="620.6 276.4 620.6 286.12 624.45 286.12"/><circle cx="661.68" cy="306.75" r="26.27"/><rect x="635.43" y="247.21" width="15.52" height="60.48"/><path d="M1230.42,401.67A28.51,28.51,0,0,0,1202,373.24h0a28.36,28.36,0,0,0-20.92,9.24l49.35,37Z" transform="translate(-579.47 -155.01)"/><path d="M1230.71,417.73l-4.13,1.78L1224.85,437l16.3,11.35,5.33-12.36v0A18.49,18.49,0,0,1,1230.71,417.73Z" transform="translate(-579.47 -155.01)"/><polygon class="cls-4" points="239.75 217.31 260.07 204.5 260.07 146.42 239.75 146.42 239.75 217.31"/><rect class="cls-3" x="195.71" y="115.6" width="56.86" height="89.45" rx="27.73"/><path class="cls-3" d="M775.18,325.87a10.54,10.54,0,1,1,0-21.08Z" transform="translate(-579.47 -155.01)"/><path class="cls-3" d="M832,325.87a10.54,10.54,0,1,0,0-21.08Z" transform="translate(-579.47 -155.01)"/><polyline class="cls-1" points="222.21 173.76 222.21 183.48 226.06 183.48"/><polygon class="cls-4" points="208.52 217.31 188.2 204.5 188.2 146.42 208.52 146.42 208.52 217.31"/><path class="cls-2" d="M803.6,270.61h0A28.5,28.5,0,0,0,775.18,299v2.4H832V299A28.51,28.51,0,0,0,803.6,270.61Z" transform="translate(-579.47 -155.01)"/><polygon class="cls-2" points="252.56 146.42 202.84 170.87 204.38 143.41 252.56 146.42"/><path class="cls-2" d="M767.67,301.46a35.94,35.94,0,0,1,71.87,0Z" transform="translate(-579.47 -155.01)"/><path class="cls-1" d="M984.72,805.34c1.75-73.72,62.59-133.49,136.71-133.49h0c75.21,0,136.75,61.54,136.75,136.75h0" transform="translate(-579.47 -155.01)"/><rect class="cls-3" x="513.35" y="478.12" width="56.86" height="89.45" rx="27.73"/><path class="cls-3" d="M1092.82,688.4a10.55,10.55,0,1,1,0-21.09Z" transform="translate(-579.47 -155.01)"/><path class="cls-3" d="M1149.67,688.4a10.55,10.55,0,1,0,0-21.09Z" transform="translate(-579.47 -155.01)"/><path class="cls-1" d="M740.25,889.37h0c0-75.21,61.53-136.75,136.74-136.75h0c75.21,0,136.75,61.54,136.75,136.75h0" transform="translate(-579.47 -155.01)"/><path class="cls-1" d="M911.38,362.16c2.55-73,63.06-132,136.66-132h0c75.21,0,136.75,61.54,136.75,136.75h0v12.74" transform="translate(-579.47 -155.01)"/><circle cx="541.78" cy="476.05" r="11.7"/><path d="M1121.24,633.13a28.51,28.51,0,0,0-26.86,19.25h53.73A28.51,28.51,0,0,0,1121.24,633.13Z" transform="translate(-579.47 -155.01)"/><polyline class="cls-1" points="538.75 536.28 538.75 546 542.61 546"/><rect class="cls-1" x="522.17" y="522.85" width="16.59" height="16.59" rx="2"/><rect class="cls-1" x="544.99" y="522.85" width="16.59" height="16.59" rx="2"/><polygon class="cls-2" points="482.33 716.62 597.76 716.62 588.81 707.67 482.33 707.67 482.33 716.62"/><path class="cls-5" d="M1049.57,866.37V853.74a1.52,1.52,0,0,1,1.51-1.52h12a1.51,1.51,0,0,1,1.51,1.52v12.63a3.75,3.75,0,0,0,3.75,3.75,1.51,1.51,0,0,1,0,3h-12A6.78,6.78,0,0,1,1049.57,866.37Zm12,0V855.25h-9v11.12a3.75,3.75,0,0,0,3.74,3.75h6.37A6.73,6.73,0,0,1,1061.58,866.37Z" transform="translate(-579.47 -155.01)"/><rect class="cls-1" x="1051.08" y="748.9" width="12.01" height="92.2" transform="translate(1534.71 1435) rotate(-180)"/><circle class="cls-3" cx="477.62" cy="593.89" r="6"/><rect class="cls-3" x="1051.08" y="841.1" width="12.01" height="12.64" transform="translate(1534.71 1539.83) rotate(-180)"/><path class="cls-3" d="M1063.09,866.37V853.74h-12v12.63a5.27,5.27,0,0,0,5.26,5.26h12A5.26,5.26,0,0,1,1063.09,866.37Z" transform="translate(-579.47 -155.01)"/><path class="cls-2" d="M1068.35,871.63h-12a5.27,5.27,0,0,1-5.26-5.26v-3.69h12v3.69A5.26,5.26,0,0,0,1068.35,871.63Z" transform="translate(-579.47 -155.01)"/><path class="cls-1" d="M1207.78,745.56a53.38,53.38,0,0,1-76.55,74.37" transform="translate(-579.47 -155.01)"/><path class="cls-1" d="M1133.86,822.56a53.38,53.38,0,0,1,73.92-77" transform="translate(-579.47 -155.01)"/><path class="cls-1" d="M1207.78,745.56a53.38,53.38,0,1,1-73.92,77" transform="translate(-579.47 -155.01)"/><circle class="cls-1" cx="610.29" cy="647.96" r="9.84"/><circle cx="551.86" cy="618.3" r="5.45"/><circle cx="559.45" cy="602.87" r="5.45"/><circle cx="559.45" cy="650.68" r="5.45"/><circle cx="551.86" cy="635.25" r="5.45"/><path class="cls-1" d="M1083.6,370.65a35.56,35.56,0,1,0-57.89,27.67h0l0,0c.45.36.9.71,1.37,1,1.77,1.62,4.61,5.23,4.61,11.71a5.89,5.89,0,0,0,5.88,5.88h20.91a5.9,5.9,0,0,0,5.88-5.88v-.17c0-6.35,2.83-9.9,4.58-11.52A35.5,35.5,0,0,0,1083.6,370.65Z" transform="translate(-579.47 -155.01)"/><path class="cls-1" d="M1019.6,370.65A28.44,28.44,0,0,1,1048,342.21" transform="translate(-579.47 -155.01)"/><line class="cls-1" x1="468.58" y1="152.32" x2="468.58" y2="163.49"/><line class="cls-1" x1="423.67" y1="170.92" x2="431.03" y2="178.29"/><line class="cls-1" x1="506.12" y1="253.37" x2="513.49" y2="260.74"/><line class="cls-1" x1="405.06" y1="215.83" x2="416.24" y2="215.83"/><line class="cls-1" x1="520.91" y1="215.83" x2="532.09" y2="215.83"/><line class="cls-1" x1="423.67" y1="260.74" x2="431.03" y2="253.37"/><line class="cls-1" x1="506.12" y1="178.29" x2="513.49" y2="170.92"/><path class="cls-3" d="M1060.07,415.75a12,12,0,1,0-24,0c0,.41,0,.82.06,1.22H1036v12.78h24V417H1060C1060.05,416.57,1060.07,416.16,1060.07,415.75Z" transform="translate(-579.47 -155.01)"/><circle class="cls-2" cx="468.58" cy="274.74" r="12.03"/><path class="cls-3" d="M1048,428a5.7,5.7,0,0,0-5.69,5.7v4.59h11.38v-4.59A5.69,5.69,0,0,0,1048,428Z" transform="translate(-579.47 -155.01)"/><circle class="cls-2" cx="468.58" cy="283.25" r="5.69"/><rect class="cls-3" x="439.96" y="36.48" width="56.86" height="89.45" rx="28.43"/><path class="cls-3" d="M1019.43,246.75a10.54,10.54,0,1,1,0-21.08Z" transform="translate(-579.47 -155.01)"/><path class="cls-3" d="M1076.28,246.75a10.54,10.54,0,1,0,0-21.08Z" transform="translate(-579.47 -155.01)"/><polyline class="cls-1" points="466.46 94.64 466.46 104.36 470.31 104.36"/><rect class="cls-1" x="241.6" y="678.64" width="69.67" height="69.67"/><rect class="cls-1" x="261.29" y="698.33" width="30.29" height="30.29"/><polygon class="cls-1" points="311.27 748.31 241.6 748.31 244.86 751.57 314.53 751.57 311.27 748.31"/><polygon class="cls-2" points="314.53 678.64 311.27 678.64 311.27 748.31 314.53 751.57 314.53 678.64"/><line class="cls-1" x1="266.34" y1="698.33" x2="266.34" y2="691.25"/><line class="cls-1" x1="276.44" y1="698.33" x2="276.44" y2="691.25"/><polyline class="cls-1" points="256.24 691.25 256.24 707.22 261.29 707.22"/><line class="cls-1" x1="286.53" y1="698.33" x2="286.53" y2="691.25"/><polyline class="cls-1" points="296.63 691.25 296.63 707.22 291.58 707.22"/><line class="cls-1" x1="266.34" y1="735.7" x2="266.34" y2="728.62"/><line class="cls-1" x1="276.44" y1="735.7" x2="276.44" y2="728.62"/><line class="cls-1" x1="286.53" y1="735.7" x2="286.53" y2="728.62"/><circle class="cls-1" cx="266.34" cy="688.59" r="2.66"/><circle class="cls-1" cx="256.24" cy="688.59" r="2.66"/><circle class="cls-1" cx="276.44" cy="688.59" r="2.66"/><circle class="cls-1" cx="286.53" cy="688.59" r="2.66"/><circle class="cls-1" cx="296.63" cy="688.59" r="2.66"/><polyline class="cls-1" points="256.24 735.71 256.24 719.73 261.29 719.73"/><polyline class="cls-1" points="296.63 735.71 296.63 719.73 291.58 719.73"/><circle class="cls-1" cx="256.24" cy="738.36" r="2.66"/><circle class="cls-1" cx="296.63" cy="738.36" r="2.66"/><circle class="cls-1" cx="266.34" cy="738.36" r="2.66"/><circle class="cls-1" cx="276.44" cy="738.36" r="2.66"/><circle class="cls-1" cx="286.53" cy="738.36" r="2.66"/><path class="cls-3" d="M923.42,902.6v19.9a1.29,1.29,0,1,0,2.58,0V902.6Z" transform="translate(-579.47 -155.01)"/><path class="cls-3" d="M916.51,888.07v9.06a8.21,8.21,0,0,0,16.41,0v-9.06Z" transform="translate(-579.47 -155.01)"/><circle class="cls-3" cx="345.25" cy="733.06" r="8.2"/><path class="cls-3" d="M918.71,821.84v66.23a6,6,0,0,0,12,0V821.84Z" transform="translate(-579.47 -155.01)"/><circle class="cls-3" cx="345.25" cy="666.83" r="6"/><rect class="cls-3" x="268.64" y="558.89" width="56.86" height="89.45" rx="27.73"/><path class="cls-3" d="M848.11,769.17a10.55,10.55,0,0,1,0-21.09Z" transform="translate(-579.47 -155.01)"/><path class="cls-3" d="M905,769.17a10.55,10.55,0,1,0,0-21.09Z" transform="translate(-579.47 -155.01)"/><polyline class="cls-1" points="295.14 617.06 295.14 626.77 299 626.77"/><rect class="cls-3" x="268.64" y="583.7" width="6.06" height="17.35"/><rect class="cls-3" x="319.43" y="583.7" width="6.06" height="17.35"/><circle cx="310.84" cy="566.99" r="25.39"/><circle cx="275.98" cy="568.41" r="18.94"/><path d="M1092.27,199.42a44.42,44.42,0,1,0-72.84,34.12V220.9h56.85v12.64A44.32,44.32,0,0,0,1092.27,199.42Z" transform="translate(-579.47 -155.01)"/><line class="cls-1" x1="516.88" y1="473.69" x2="516.88" y2="492.42"/></svg>