<svg id="レイヤー_1" data-name="レイヤー 1" xmlns="http://www.w3.org/2000/svg" viewBox="0 0 760.5 769.99"><defs><style>.cls-1,.cls-3,.cls-4{fill:none;}.cls-1,.cls-2,.cls-3,.cls-4,.cls-5,.cls-6{stroke:#000;stroke-width:0.5px;}.cls-1,.cls-2{stroke-linecap:round;stroke-linejoin:round;}.cls-3,.cls-5,.cls-6{stroke-miterlimit:10;}.cls-5{fill:#fff;}</style></defs><circle cx="235.57" cy="64.85" r="8.75"/><circle class="cls-1" cx="252.94" cy="479.51" r="7.59"/><circle cx="252.94" cy="479.51" r="3.44"/><polyline class="cls-1" points="258.31 484.88 96.2 646.99 85.46 636.25 247.57 474.14"/><polyline class="cls-1" points="85.46 636.25 67.12 665.33 96.2 646.99"/><circle class="cls-1" cx="261.38" cy="511.18" r="7.59"/><circle cx="261.38" cy="511.18" r="3.44"/><polyline class="cls-1" points="266.75 516.55 104.64 678.66 93.9 667.92 256.01 505.81"/><polyline class="cls-2" points="93.9 667.92 75.56 697 104.64 678.66"/><circle class="cls-1" cx="293.05" cy="519.61" r="7.59"/><circle cx="293.05" cy="519.61" r="3.44"/><polyline class="cls-1" points="298.42 524.98 136.31 687.1 125.57 676.36 287.68 514.25"/><polyline class="cls-1" points="125.57 676.36 107.23 705.43 136.31 687.1"/><circle class="cls-3" cx="507.47" cy="318.99" r="19.08"/><path class="cls-3" d="M1075.6,458.33a19.08,19.08,0,1,1,26.74,26.73" transform="translate(-579.67 -154.53)"/><path class="cls-3" d="M1125.07,588.06V487a19,19,0,0,0-19-19h-.54" transform="translate(-579.67 -154.53)"/><polygon class="cls-2" points="626.87 433.46 570.41 433.46 570.41 233.49 626.87 177.03 626.87 433.46"/><circle class="cls-3" cx="131.81" cy="197.31" r="6.45"/><polygon class="cls-2" points="183.14 208.89 176.47 208.89 176.47 65.95 183.14 59.28 183.14 208.89"/><rect class="cls-3" x="98.73" y="77.53" width="66.16" height="107.79"/><rect class="cls-1" x="73.23" y="477.26" width="34.27" height="21.8"/><line class="cls-1" x1="46.48" y1="499.06" x2="134.25" y2="499.06"/><polygon class="cls-2" points="191.1 477.26 180.34 477.26 180.34 371.5 191.1 360.73 191.1 477.26"/><rect class="cls-2" x="107.5" y="477.26" width="5.38" height="21.8"/><rect class="cls-3" x="8.95" y="380.06" width="162.82" height="88.64"/><circle class="cls-1" cx="65.06" cy="424.19" r="27.77"/><polygon points="110.24 393.82 110.24 427.47 76.59 427.47 110.24 393.82"/><rect class="cls-1" x="116.38" y="414.47" width="27.05" height="27.05"/><path class="cls-4" d="M1162.09,276.28,1159,266.12c-.14-.27-.31-.41-.52-.41H1133a.6.6,0,0,0-.52.41l-3,10.16a1.31,1.31,0,0,1-1.35,1h-13.16a1.14,1.14,0,0,1-.93-.37,1.11,1.11,0,0,1-.1-1.08l22.38-70.07a1.3,1.3,0,0,1,1.35-1h16.27a1.3,1.3,0,0,1,1.35,1l22.39,70.07a1.29,1.29,0,0,1,.1.51c0,.63-.38.94-1.14.94h-13.16A1.31,1.31,0,0,1,1162.09,276.28Zm-25.5-21.87h18.24c.42,0,.56-.21.42-.62L1145.92,223c-.07-.28-.17-.4-.31-.36s-.24.15-.31.36l-9.12,30.78C1136.11,254.2,1136.25,254.41,1136.59,254.41Z" transform="translate(-579.67 -154.53)"/><rect class="cls-4" x="516.14" y="36.03" width="99.75" height="99.75"/><line class="cls-4" x1="566.02" y1="36.03" x2="566.02" y2="135.79"/><line class="cls-4" x1="615.89" y1="85.91" x2="516.14" y2="85.91"/><path class="cls-5" d="M602.41,413.39H800.66a17.57,17.57,0,0,0,17.55-17.56V219.66a3,3,0,0,0-5.94,0V395.83a11.63,11.63,0,0,1-11.61,11.61H602.41a17.56,17.56,0,1,0,0,35.11H765a11.61,11.61,0,0,1,0,23.21H737.78a3,3,0,1,0,0,5.95H765a17.56,17.56,0,0,0,0-35.11H602.41a11.61,11.61,0,1,1,0-23.21Z" transform="translate(-579.67 -154.53)"/><path class="cls-5" d="M736.45,459.74H707.39v17.63h29.06a8.82,8.82,0,0,0,0-17.63Z" transform="translate(-579.67 -154.53)"/><circle class="cls-2" cx="127.72" cy="314.02" r="8.82"/><path class="cls-5" d="M705.68,465.83H680.19v5.87h25.49a2.94,2.94,0,1,0,0-5.88Z" transform="translate(-579.67 -154.53)"/><circle class="cls-5" cx="100.52" cy="314.24" r="2.94"/><circle cx="549.6" cy="487.52" r="8.75"/><path class="cls-5" d="M1231.19,709.62a17.58,17.58,0,0,0-17.56,17.56v79.3a11.61,11.61,0,1,1-23.21,0V724.66h0V697.43a17.56,17.56,0,0,0-35.11,0V851.1a11.61,11.61,0,1,1-23.21,0V642.51h0a3.44,3.44,0,0,0,0-.45,3,3,0,1,0-5.95,0,3.42,3.42,0,0,0,0,.45h0V851.1a17.56,17.56,0,0,0,35.11,0V697.43a11.61,11.61,0,0,1,23.21,0v17.93h0v.44h0v90.66a17.56,17.56,0,1,0,35.11,0v-79.3a11.61,11.61,0,1,1,23.21,0V754.4a3,3,0,0,0,6,0V727.18A17.57,17.57,0,0,0,1231.19,709.62Z" transform="translate(-579.67 -154.53)"/><path class="cls-5" d="M1236.84,738.1v29h17.64v-29a8.82,8.82,0,1,0-17.64,0Z" transform="translate(-579.67 -154.53)"/><circle class="cls-2" cx="665.99" cy="612.62" r="8.82"/><path class="cls-5" d="M1242.94,768.86v25.5h5.86V769a.68.68,0,0,0,0-.14,2.94,2.94,0,1,0-5.88,0Z" transform="translate(-579.67 -154.53)"/><circle class="cls-5" cx="666.21" cy="639.82" r="2.94"/><path d="M916.55,779.34a23.46,23.46,0,0,0,46.92,0Z" transform="translate(-579.67 -154.53)"/><rect class="cls-6" x="366.86" y="543.63" width="15.18" height="41.42" rx="3.16"/><rect class="cls-6" x="465.28" y="543.63" width="15.18" height="41.42" rx="3.16"/><path class="cls-6" d="M931.86,728.45h-2.34a4.26,4.26,0,0,1-4.24-4.24V713.53a4.26,4.26,0,0,1,4.24-4.24h2.34Z" transform="translate(-579.67 -154.53)"/><path class="cls-6" d="M1075.28,728.45h2.34a4.26,4.26,0,0,0,4.24-4.24V713.53a4.26,4.26,0,0,0-4.24-4.24h-2.34Z" transform="translate(-579.67 -154.53)"/><path class="cls-3" d="M1067.32,729.28a3,3,0,0,1-3-3v-30a56.58,56.58,0,0,0-56.51-56.52h-9a56.59,56.59,0,0,0-56.52,56.52v30a3,3,0,0,1-5.95,0v-30a62.55,62.55,0,0,1,62.47-62.47h9a62.54,62.54,0,0,1,62.46,62.47v30A3,3,0,0,1,1067.32,729.28Z" transform="translate(-579.67 -154.53)"/><path class="cls-5" d="M1259.24,635.88c-5.11,0-9.25,10.1-9.25,22.56s4.14,22.56,9.25,22.56h12.4V635.88Z" transform="translate(-579.67 -154.53)"/><ellipse class="cls-6" cx="691.98" cy="503.91" rx="9.25" ry="22.56"/><path class="cls-5" d="M1273.76,635.88c-5.11,0-9.25,10.1-9.25,22.56s4.14,22.56,9.25,22.56h42.39V635.88Z" transform="translate(-579.67 -154.53)"/><ellipse class="cls-6" cx="736.48" cy="503.91" rx="9.25" ry="22.56"/><path class="cls-5" d="M1318.26,635.88c-5.11,0-9.25,10.1-9.25,22.56s4.14,22.56,9.25,22.56h12.4V635.88Z" transform="translate(-579.67 -154.53)"/><ellipse class="cls-6" cx="751" cy="503.91" rx="9.25" ry="22.56"/><polygon class="cls-2" points="741.12 241.73 732.9 241.73 732.9 166.96 741.12 158.74 741.12 241.73"/><path class="cls-5" d="M1286.74,396.26V639.75a4.11,4.11,0,1,0,8.21,0V396.26Z" transform="translate(-579.67 -154.53)"/><rect class="cls-5" x="318.82" y="0.25" width="146.56" height="98.59"/><rect class="cls-6" x="304.55" y="14.53" width="146.56" height="98.59"/><rect class="cls-5" x="290.27" y="28.8" width="146.56" height="98.59"/><circle class="cls-1" cx="363.55" cy="78.1" r="34.56"/><polygon class="cls-1" points="380.07 78.86 354.96 64.37 354.96 93.36 380.07 78.86"/><polygon class="cls-3" points="296.06 433.46 296.06 233.49 352.52 177.03 626.87 177.03 626.87 433.46 296.06 433.46"/><line class="cls-3" x1="296.06" y1="233.49" x2="578.24" y2="233.49"/><line class="cls-3" x1="329.92" y1="338.08" x2="459.26" y2="338.08"/><line class="cls-3" x1="373.03" y1="433.46" x2="373.03" y2="338.08"/><line class="cls-3" x1="416.15" y1="433.46" x2="416.15" y2="338.08"/><polyline class="cls-3" points="329.92 433.46 329.92 306.85 459.26 306.85 459.26 433.46"/><path class="cls-3" d="M666.83,220.49l6.67-6.68h89.31V363.42h-96S666.42,220.08,666.83,220.49Z" transform="translate(-579.67 -154.53)"/><line class="cls-3" x1="87.16" y1="65.95" x2="180.54" y2="65.95"/><path class="cls-3" d="M580.06,526l10.77-10.77H770.77V631.8H580.06S579.74,526.34,580.06,526Z" transform="translate(-579.67 -154.53)"/><line class="cls-3" x1="0.39" y1="371.49" x2="184.74" y2="371.49"/><path class="cls-3" d="M839.35,779.34h201.32v44.11H996.56V924.27H883.47V823.45H839.35Z" transform="translate(-579.67 -154.53)"/><line class="cls-3" x1="416.89" y1="668.92" x2="416.89" y2="624.75"/><line class="cls-3" x1="303.8" y1="668.92" x2="303.8" y2="624.89"/><path class="cls-1" d="M1260.91,321.49l8.21-8.21h51.67v83h-59.88Z" transform="translate(-579.67 -154.53)"/><line class="cls-1" x1="681.24" y1="166.96" x2="734.38" y2="166.96"/></svg>